# xmcd
#
# Track frame offsets: 
#        150
#        14345
#        39084
#        62362
#        100415
#        126853
#        171223
#        204380
#
# Disc length: 3083 seconds
#
# Revision: 8
# Processed by: cddbd v1.5.2PL0 Copyright (c) Steve Scherf et al.
# Submitted via: ExactAudioCopyFreeDBPlugin 1.0
#
DISCID=5f0c0908
DTITLE=Kevin Braheny and Tim Clark - The Spell
DYEAR=1996
DGENRE=New Age
TTITLE0=The Magician
TTITLE1=A Perfect Evening For Flying  Carpets
TTITLE2=Time In The Mirror (Transporter Version)
TTITLE3=Palace Of Dreams
TTITLE4=The Spell
TTITLE5=Merlin's Last Voyage
TTITLE6=The Sail Of Argo Navis
TTITLE7=Sorceror's Parade
EXTD=with Tim Clark YEAR: 1996
EXTT0=
EXTT1=
EXTT2=
EXTT3=
EXTT4=
EXTT5=
EXTT6=
EXTT7=
PLAYORDER=
